<?xml version="1.0" encoding="UTF-8"?>
<svg width="700pt" height="700pt" version="1.1" viewBox="0 0 700 600" xmlns="http://www.w3.org/2000/svg" xmlns:xlink="http://www.w3.org/1999/xlink" fill="black">
 <defs/>
 <g>
  <path d="m572.32 398.16-48.719-19.602v-120.96c0-73.922-46.48-137.2-112-162.4v-5.6016c0-34.16-27.441-61.602-61.602-61.602s-61.602 27.441-61.602 61.602v5.6016c-65.52 25.199-112 88.48-112 162.4v120.96l-48.719 19.602c-4.4805 2.2344-7.2812 6.1562-7.2812 10.637v67.199c0 6.1602 5.0391 11.199 11.199 11.199h153.44c7.2812 25.762 30.801 44.801 59.359 44.801h11.199c28 0 52.078-19.039 59.359-44.801h153.44c6.1602 0 11.199-5.0391 11.199-11.199l0.003906-67.199c0-4.4805-2.8008-8.4023-7.2812-10.641zm-222.32-347.76c21.281 0 38.641 16.801 39.199 38.078-12.32-2.8008-25.762-4.4805-39.199-4.4805-13.441 0-26.32 1.6797-39.199 4.4805 0.55859-21.277 17.918-38.078 39.199-38.078zm5.6016 459.2h-11.199c-15.68 0-29.121-8.9609-35.281-22.398h81.762c-6.1641 13.438-19.602 22.398-35.281 22.398zm201.6-44.801h-414.4v-48.719l48.719-19.602c4.4805-1.6797 7.2812-5.6016 7.2812-10.641v-128.24c0-83.441 67.762-151.2 151.2-151.2 83.441 0 151.2 67.762 151.2 151.2v128.8c0 4.4805 2.8008 8.3984 7.2812 10.641l48.719 19.602z"/>
 </g>
</svg>
