<?xml version="1.0" encoding="UTF-8"?>
<svg width="700pt" height="700pt" version="1.1" viewBox="0 0 700 600" xmlns="http://www.w3.org/2000/svg" xmlns:xlink="http://www.w3.org/1999/xlink" fill="black">
 <defs/>
 <g>
  <path d="m590.8 28h-408.8c-46.48 0-84 37.52-84 84v336c0 46.48 37.52 84 84 84h408.8c6.1602 0 11.199-5.0391 11.199-11.199v-481.6c0-6.1602-5.0391-11.199-11.199-11.199zm-11.199 481.6h-397.6c-34.16 0-61.602-27.441-61.602-61.602v-278.88c15.121 16.801 37.52 26.879 61.602 26.879h11.199v162.4c0 4.4805 2.8008 8.3984 6.7188 10.078 4.4805 1.6797 8.9609 0.55859 12.32-2.2383l64.961-64.957 64.961 64.961c2.2383 2.2383 5.0391 3.3594 7.8398 3.3594 1.6797 0 2.8008 0 4.4805-1.1211 3.9219-1.6797 6.7188-5.6016 6.7188-10.078v-162.4h218.4zm-364-178.08v-208.32h123.2v208.32l-53.762-53.762c-2.2383-2.2383-5.0391-3.3594-7.8398-3.3594s-5.6016 1.1211-7.8398 3.3594zm364-157.92h-218.4v-61.602c0-6.1602-5.0391-11.199-11.199-11.199h-145.6c-6.1602 0-11.199 5.0391-11.199 11.199v61.602h-11.199c-34.16 0-61.602-27.441-61.602-61.602s27.441-61.602 61.602-61.602h397.6z"/>
 </g>
</svg>
