<?xml version="1.0" encoding="UTF-8"?>
<svg width="700pt" height="700pt" version="1.1" viewBox="0 0 700 600" xmlns="http://www.w3.org/2000/svg" xmlns:xlink="http://www.w3.org/1999/xlink" fill="black">
 <defs/>
 <g>
  <path d="m590.8 134.4h-80.641l-154-104.72c-3.9219-2.8008-8.9609-2.8008-12.32 0l-154 104.72h-80.641c-6.1602 0-11.199 5.0391-11.199 11.199v375.2c0 6.1602 5.0391 11.199 11.199 11.199h481.6c6.1602 0 11.199-5.0391 11.199-11.199v-375.2c0-6.1602-5.0391-11.203-11.199-11.203zm-240.8-81.758 120.4 81.758h-240.8zm229.6 456.96h-459.2v-352.8h459.2zm-82.32-314.16-18.48 28.559c-11.762-20.16-34.719-33.602-61.039-33.602-33.602 0-61.039 21.281-68.32 51.52-16.801 8.3984-27.441 25.762-27.441 44.238 0 27.441 22.961 49.84 50.961 49.84h31.922l-73.922 112-80.082-70s-0.55859 0-0.55859-0.55859c-0.55859 0-0.55859-0.55859-1.1211-0.55859-0.55859 0-0.55859-0.55859-1.1211-0.55859-0.55859 0-0.55859-0.55859-1.1211-0.55859h-1.1211-1.1211-1.1211-1.1211-1.1211-1.1211-1.1211c-0.55859 0-0.55859 0-1.1211 0.55859-0.55859 0-0.55859 0.55859-1.1211 0.55859-0.55859 0-0.55859 0.55859-1.1211 0.55859-0.55859 0-0.55859 0.55859-1.1211 0.55859l-78.957 78.957c-4.4805 4.4805-4.4805 11.199 0 15.68 3.9336 2.2422 6.7305 3.3633 9.5312 3.3633s5.6016-1.1211 7.8398-3.3594l71.121-71.121 81.762 71.68 0.55859 0.55859s0.55859 0.55859 0.55859 0.55859c0.55859 0.55859 1.6797 1.1211 2.8008 1.1211h0.55859c1.1211 0 1.6797 0.55859 2.8008 0.55859 1.1211 0 1.6797 0 2.8008-0.55859h0.55859c0.55859 0 1.1211-0.55859 1.6797-0.55859 0.55859 0 0.55859-0.55859 1.1211-0.55859 0.55859 0 1.1211-0.55859 1.1211-1.1211 0.55859 0 0.55859-0.55859 0.55859-0.55859l1.6758-1.6758 89.047-134.96h63.281c28 0 50.961-22.398 50.961-49.84 0-26.879-21.84-48.719-48.719-49.84l18.48-28.559c3.3594-5.0391 2.2383-12.32-3.3594-15.68-4.4844-3.3633-11.766-1.6836-15.125 3.3594zm-16.801 66.637c0.55859 0 0.55859-0.55859 1.1211-0.55859 3.9219-2.2383 8.9609-3.3594 13.441-3.3594 15.68 0 28.559 12.32 28.559 27.441 0 15.121-12.879 27.441-28.559 27.441l-122.08-0.003907c-15.68 0-28.559-12.32-28.559-27.441 0-11.762 7.2812-21.84 18.48-25.762 3.9219-1.6797 6.7188-5.0391 7.2812-8.9609 2.8008-21.84 22.398-38.078 47.039-38.078 22.961 0 41.441 14 46.48 33.602l-16.238 24.641c-3.3594 5.0391-2.2383 12.32 3.3594 15.68 1.6797 1.1211 3.9219 1.6797 6.1602 1.6797 3.3594 0 7.2812-1.6797 9.5195-5.0391zm-304.08-26.879c0-6.1602 5.0391-11.199 11.199-11.199h56c6.1602 0 11.199 5.0391 11.199 11.199 0 6.1602-5.0391 11.199-11.199 11.199h-55.996c-6.1602 0-11.203-5.0391-11.203-11.199zm330.4 229.6c0 6.1602-5.0391 11.199-11.199 11.199h-56c-6.1602 0-11.199-5.0391-11.199-11.199 0-6.1602 5.0391-11.199 11.199-11.199h56c6.1602 0 11.199 5.0391 11.199 11.199z"/>
 </g>
</svg>
