<?xml version="1.0" encoding="UTF-8"?>
<svg width="700pt" height="700pt" version="1.1" viewBox="0 0 700 600" xmlns="http://www.w3.org/2000/svg" xmlns:xlink="http://www.w3.org/1999/xlink" fill="black">
 <defs/>
 <g>
  <path d="m557.2 117.6h-325.92c-5.6016-31.922-33.039-56-66.078-56-36.961 0-67.199 30.238-67.199 67.199v302.4c0 36.961 30.238 67.199 67.199 67.199h392c24.641 0 44.801-20.16 44.801-44.801l-0.003906-291.2c0-24.637-20.16-44.797-44.801-44.797zm-240.8 190.4h22.398c9.5195 0 16.801 7.2812 16.801 16.801s-7.2812 16.801-16.801 16.801h-106.4v-145.6h274.4c9.5195 0 16.801 7.2812 16.801 16.801s-7.2812 16.801-16.801 16.801h-5.6016c-21.84 0-39.199 17.359-39.199 39.199 0 9.5195-7.2812 16.801-16.801 16.801-9.5195 0-16.801-7.2812-16.801-16.801 0-21.84-17.359-39.199-39.199-39.199h-72.797c-21.84 0-39.199 17.359-39.199 39.199 0 21.84 17.359 39.199 39.199 39.199zm-151.2-224c24.641 0 44.801 20.16 44.801 44.801v252.56c-11.762-10.641-27.441-17.359-44.801-17.359s-33.039 6.7188-44.801 17.359v-252.56c0-24.641 20.16-44.801 44.801-44.801zm414.4 369.6c0 12.32-10.078 22.398-22.398 22.398h-392c-24.641 0-44.801-20.16-44.801-44.801s20.16-44.801 44.801-44.801 44.801 20.16 44.801 44.801c0 6.1602 5.0391 11.199 11.199 11.199 6.1602 0 11.199-5.0391 11.199-11.199v-67.199h106.4c21.84 0 39.199-17.359 39.199-39.199 0-21.84-17.359-39.199-39.199-39.199h-22.398c-9.5195 0-16.801-7.2812-16.801-16.801s7.2812-16.801 16.801-16.801h72.801c9.5195 0 16.801 7.2812 16.801 16.801 0 21.84 17.359 39.199 39.199 39.199 21.84 0 39.199-17.359 39.199-39.199 0-9.5195 7.2812-16.801 16.801-16.801h5.6016c21.84 0 39.199-17.359 39.199-39.199 0-21.84-17.359-39.199-39.199-39.199h-274.4v-33.602h324.8c12.32 0 22.398 10.078 22.398 22.398zm-33.602-22.402c0 6.1602-5.0391 11.199-11.199 11.199h-67.199c-6.1602 0-11.199-5.0391-11.199-11.199 0-6.1602 5.0391-11.199 11.199-11.199h67.199c6.1602 0 11.199 5.0391 11.199 11.199zm-126.56-7.8398c2.2383 2.2422 3.3594 5.0391 3.3594 7.8398 0 1.6797 0 2.8008-1.1211 4.4805-0.55859 1.1211-1.1211 2.8008-2.2383 3.3594-2.2422 2.2422-5.043 3.3594-7.8398 3.3594-2.8008 0-5.6016-1.1211-7.8398-3.3594-1.1211-1.1211-1.6797-2.2383-2.2383-3.3594-1.125-1.6797-1.125-2.8008-1.125-4.4805 0-2.8008 1.1211-5.6016 3.3594-7.8398 0.55859-0.55859 1.1211-1.1211 1.6797-1.1211 0.55859-0.55859 1.1211-0.55859 1.6797-1.1211 0.55859 0 1.1211-0.55859 2.2383-0.55859h4.4805c0.55859 0 1.1211 0.55859 2.2383 0.55859 0.55859 0.55859 1.1211 0.55859 1.6797 1.1211 0.56641 0 1.125 0.5625 1.6875 1.1211zm126.56-48.16c0 6.1602-5.0391 11.199-11.199 11.199h-67.199c-6.1602 0-11.199-5.0391-11.199-11.199 0-6.1602 5.0391-11.199 11.199-11.199h67.199c6.1602 0 11.199 5.0391 11.199 11.199zm-123.2-2.2383v2.2383c0 1.6797 0 2.8008-1.1211 4.4805-0.55859 1.1211-1.1211 2.8008-2.2383 3.3594-0.55859 0.55859-1.1211 1.1211-1.6797 1.1211-0.55859 0.55859-1.1211 0.55859-1.6797 1.1211-0.55859 0-1.1211 0.55859-2.2383 0.55859h-2.2383c-2.8008 0-5.6016-1.1211-7.8398-3.3594-2.2461-1.6797-3.3672-4.4805-3.3672-7.2812v-2.2383c0-0.55859 0.55859-1.6797 0.55859-2.2383 0.55859-0.55859 0.55859-1.1211 1.1211-1.6797 0.55859-0.55859 1.1211-1.1211 1.1211-1.6797 0.55859-0.55859 1.1211-1.1211 1.6797-1.1211 0.55859-0.55859 1.1211-0.55859 1.6797-1.1211 0.55859 0 1.1211-0.55859 2.2383-0.55859 3.9219-0.55859 7.2812 0.55859 10.078 2.8008 0.55859 0.55859 1.1211 1.1211 1.1211 1.6797 0.55859 0.55859 0.55859 1.1211 1.1211 1.6797s1.1211 1.6758 1.6836 2.2383z"/>
 </g>
</svg>
