<?xml version="1.0" encoding="UTF-8"?>
<svg width="700pt" height="700pt" version="1.1" viewBox="0 0 700 600" xmlns="http://www.w3.org/2000/svg" xmlns:xlink="http://www.w3.org/1999/xlink" fill="black">
 <defs/>
 <g>
  <path d="m595.5 219.69c-4.1992-4.2578-9.8555-6.5508-15.848-6.6094l-40.32-0.054687c-6.9453 0-9.6875-5.3203-10.359-6.9453-0.67187-1.625-2.4648-7.2812 2.4648-12.207l28.559-28.449c4.2578-4.1992 6.5508-9.8555 6.6094-15.848 0-5.9922-2.2969-11.594-6.5508-15.848l-63.281-63.449c-8.7344-8.7344-22.961-8.7344-31.695-0.054688l-28.559 28.449c-4.9297 4.9297-10.586 3.0781-12.207 2.4062-1.625-0.67188-6.8867-3.4141-6.8867-10.359l0.054687-40.32c0-5.9922-2.2969-11.594-6.5508-15.848-4.1992-4.2578-9.8555-6.5508-15.848-6.6094l-89.602-0.11328h-0.054687c-5.9922 0-11.594 2.2969-15.793 6.5508-4.2578 4.1992-6.5508 9.8555-6.6094 15.848l-0.054688 40.32c0 6.9453-5.3203 9.6875-6.9453 10.359s-7.2812 2.4648-12.207-2.4648l-28.449-28.559c-4.1992-4.2578-9.8555-6.5508-15.848-6.6094h-0.054688c-5.9922 0-11.594 2.2969-15.793 6.5508l-63.449 63.281c-8.7344 8.7344-8.7344 22.902-0.054687 31.695l28.449 28.559c4.9297 4.9297 3.0781 10.586 2.4062 12.207-0.67188 1.625-3.4141 6.8867-10.359 6.8867l-40.32-0.054687h-0.054687c-5.9922 0-11.594 2.2969-15.793 6.5508-4.2578 4.1992-6.5508 9.8555-6.6094 15.848l-0.11328 89.602c0 12.375 10.023 22.398 22.344 22.457l40.32 0.054687c6.9453 0 9.6875 5.3203 10.359 6.9453s2.4648 7.2812-2.4648 12.207l-28.559 28.449c-8.7344 8.7344-8.7344 22.961-0.054688 31.695l63.281 63.449c8.7344 8.7344 22.961 8.793 31.695 0.054688l28.559-28.449c4.9297-4.9297 10.586-3.0781 12.207-2.4062 1.625 0.67188 6.8867 3.4141 6.8867 10.359l-0.054687 40.32c0 12.375 10.023 22.398 22.344 22.457l89.602 0.11328h0.054687c5.9922 0 11.594-2.2969 15.793-6.5508 4.2578-4.1992 6.5508-9.8555 6.6094-15.848l0.054687-40.32c0-6.9453 5.3203-9.6875 6.9453-10.359s7.2812-2.4648 12.207 2.4648l28.449 28.559c8.7344 8.7344 22.961 8.793 31.695 0.054688l63.449-63.281c8.7344-8.7344 8.793-22.961 0.054688-31.695l-28.449-28.559c-4.9297-4.9297-3.0781-10.586-2.4062-12.207 0.67188-1.625 3.4141-6.8867 10.359-6.8867l40.32 0.054688h0.054688c12.32 0 22.398-10.023 22.398-22.344l0.11328-89.602c0.10938-6.043-2.1836-11.641-6.4414-15.898zm-15.848 15.848-0.11328 89.602-40.32-0.054688h-0.054687c-13.832 0-25.703 7.9531-31.023 20.719-5.3203 12.77-2.5195 26.824 7.2227 36.625l28.449 28.559-63.449 63.281-28.449-28.559c-9.8008-9.8008-23.801-12.602-36.625-7.3359s-20.777 17.191-20.777 31.023l-0.054687 40.32-89.602-0.11328 0.054687-40.32c0-13.832-7.8945-25.762-20.719-31.078-4.3125-1.793-8.7344-2.6328-13.105-2.6328-8.625 0-17.023 3.4141-23.52 9.9102l-28.559 28.449-63.281-63.449 28.559-28.449c9.8008-9.8008 12.602-23.801 7.3359-36.625s-17.191-20.777-31.023-20.777l-40.32-0.054687 0.11328-89.602 40.32 0.054688c13.777 0.16797 25.762-7.8945 31.078-20.719 5.3203-12.77 2.5195-26.824-7.2227-36.625l-28.449-28.559 63.449-63.281 28.449 28.559c9.8008 9.8008 23.801 12.602 36.625 7.3359s20.777-17.191 20.777-31.023l0.054687-40.32 89.602 0.11328-0.054687 40.32c0 13.832 7.8945 25.762 20.719 31.078 12.77 5.3203 26.824 2.5195 36.625-7.2227l28.559-28.449 63.281 63.449-28.559 28.449c-9.8008 9.8008-12.602 23.801-7.3359 36.625 5.2656 12.824 17.137 20.777 31.023 20.777zm-229.66-45.137c-49.391 0-89.602 40.207-89.602 89.602 0 49.391 40.207 89.602 89.602 89.602 49.391 0 89.602-40.207 89.602-89.602 0-49.391-40.211-89.602-89.602-89.602zm0 156.8c-37.07 0-67.199-30.129-67.199-67.199s30.129-67.199 67.199-67.199 67.199 30.129 67.199 67.199-30.129 67.199-67.199 67.199z"/>
 </g>
</svg>
