<?xml version="1.0" encoding="UTF-8"?>
<svg width="700pt" height="700pt" version="1.1" viewBox="0 0 700 600" xmlns="http://www.w3.org/2000/svg" xmlns:xlink="http://www.w3.org/1999/xlink" fill="black">
 <defs/>
 <g>
  <path d="m532 28h-364c-36.961 0-67.199 30.238-67.199 67.199v369.6c0 36.961 30.238 67.199 67.199 67.199h364c36.961 0 67.199-30.238 67.199-67.199v-369.6c0-36.961-30.238-67.199-67.199-67.199zm33.602 67.199v33.602h-128.8v-67.199h95.199c18.48 0 33.602 15.117 33.602 33.598zm-280 33.602v-67.199h128.8v67.199zm128.8 22.398v347.2h-128.8l0.003906-347.2zm-246.4-89.598h95.199v67.199h-128.8v-33.602c0-18.48 15.121-33.598 33.602-33.598zm-33.602 403.2v-313.6h128.8v347.2h-95.199c-18.48 0-33.602-15.117-33.602-33.598zm397.6 33.598h-95.199v-347.2h128.8v313.6c0 18.48-15.121 33.598-33.602 33.598zm-375.2-274.4c0-6.1602 5.0391-11.199 11.199-11.199h61.602c6.1602 0 11.199 5.0391 11.199 11.199s-5.0391 11.199-11.199 11.199h-61.602c-6.1602 0-11.199-5.0391-11.199-11.199zm84 67.199c0 6.1602-5.0391 11.199-11.199 11.199h-61.602c-6.1602 0-11.199-5.0391-11.199-11.199 0-6.1602 5.0391-11.199 11.199-11.199h61.602c6.1602 0 11.199 5.0391 11.199 11.199zm0 67.199c0 6.1602-5.0391 11.199-11.199 11.199h-61.602c-6.1602 0-11.199-5.0391-11.199-11.199 0-6.1602 5.0391-11.199 11.199-11.199h61.602c6.1602 0 11.199 5.0391 11.199 11.199zm0 67.203c0 6.1602-5.0391 11.199-11.199 11.199h-61.602c-6.1602 0-11.199-5.0391-11.199-11.199 0-6.1602 5.0391-11.199 11.199-11.199h61.602c6.1602-0.003906 11.199 5.0391 11.199 11.199zm67.199-201.6c0-6.1602 5.0391-11.199 11.199-11.199h61.602c6.1602 0 11.199 5.0391 11.199 11.199s-5.0391 11.199-11.199 11.199h-61.602c-6.1602 0-11.199-5.0391-11.199-11.199zm0 67.199c0-6.1602 5.0391-11.199 11.199-11.199h61.602c6.1602 0 11.199 5.0391 11.199 11.199 0 6.1602-5.0391 11.199-11.199 11.199h-61.602c-6.1602 0-11.199-5.0391-11.199-11.199zm0 67.199c0-6.1602 5.0391-11.199 11.199-11.199h61.602c6.1602 0 11.199 5.0391 11.199 11.199 0 6.1602-5.0391 11.199-11.199 11.199h-61.602c-6.1602 0.003906-11.199-5.0391-11.199-11.199zm84 67.203c0 6.1602-5.0391 11.199-11.199 11.199h-61.602c-6.1602 0-11.199-5.0391-11.199-11.199 0-6.1602 5.0391-11.199 11.199-11.199h61.602c6.1602-0.003906 11.199 5.0391 11.199 11.199zm151.2-201.6c0 6.1602-5.0391 11.199-11.199 11.199h-61.602c-6.1602 0-11.199-5.0391-11.199-11.199s5.0391-11.199 11.199-11.199h61.602c6.1602 0 11.199 5.0391 11.199 11.199zm0 67.199c0 6.1602-5.0391 11.199-11.199 11.199h-61.602c-6.1602 0-11.199-5.0391-11.199-11.199 0-6.1602 5.0391-11.199 11.199-11.199h61.602c6.1602 0 11.199 5.0391 11.199 11.199zm0 67.199c0 6.1602-5.0391 11.199-11.199 11.199h-61.602c-6.1602 0-11.199-5.0391-11.199-11.199 0-6.1602 5.0391-11.199 11.199-11.199h61.602c6.1602 0 11.199 5.0391 11.199 11.199zm0 67.203c0 6.1602-5.0391 11.199-11.199 11.199h-61.602c-6.1602 0-11.199-5.0391-11.199-11.199 0-6.1602 5.0391-11.199 11.199-11.199h61.602c6.1602-0.003906 11.199 5.0391 11.199 11.199z"/>
 </g>
</svg>
